<svg width="99" height="99" viewBox="0 0 99 99" fill="none" xmlns="http://www.w3.org/2000/svg">
<path d="M93.2101 49.3934C93.2101 70.0077 76.5269 86.7868 56.0084 86.7868C48.4339 86.7868 41.147 84.4857 34.9147 80.2669C33.1889 79.0205 32.7095 76.7193 33.9559 74.8976C35.2024 73.1718 37.5035 72.6924 39.3252 73.9388C44.2151 77.2946 50.0638 79.1164 56.0084 79.1164C72.3081 79.1164 85.5396 65.789 85.5396 49.3934C85.5396 32.9978 72.3081 19.6704 56.0084 19.6704C40.0923 19.6704 27.0525 32.4225 26.4772 48.3387L35.3941 39.3259C36.9282 37.7919 39.3252 37.7919 40.8593 39.3259C42.3934 40.86 42.3934 43.257 40.8593 44.7911L26.1896 59.4609C25.4225 60.2279 24.4637 60.6114 23.5049 60.6114C22.4503 60.6114 21.4914 60.2279 20.8203 59.4609L6.15057 44.6953C4.61648 43.1612 4.61648 40.7642 6.15057 39.2301C7.68465 37.696 10.0817 37.696 11.6158 39.2301L18.9027 46.6129C20.245 27.3409 36.3529 12 56.0084 12C76.5269 12 93.2101 28.7791 93.2101 49.3934ZM55.8167 27.6285C53.7073 27.6285 51.9814 29.3544 51.9814 31.4637V49.3934C51.9814 50.4481 52.4609 51.4069 53.2279 52.0781L61.4736 60.3238C62.2407 61.0908 63.1995 61.4743 64.2542 61.4743C65.213 61.4743 66.2676 61.0908 66.9388 60.3238C68.4729 58.7897 68.377 56.3927 66.8429 54.8586L59.6519 47.7634V31.4637C59.6519 29.3544 57.926 27.6285 55.8167 27.6285Z" fill="white"/>
</svg>
