<svg width="99" height="99" viewBox="0 0 99 99" fill="none" xmlns="http://www.w3.org/2000/svg">
<path d="M41.4065 53.3727H57.1556C58.1998 53.3727 59.2013 52.9578 59.9396 52.2195C60.678 51.4811 61.0928 50.4796 61.0928 49.4354C61.0928 48.3912 60.678 47.3897 59.9396 46.6513C59.2013 45.9129 58.1998 45.4981 57.1556 45.4981H41.4065C40.3623 45.4981 39.3608 45.9129 38.6224 46.6513C37.8841 47.3897 37.4692 48.3912 37.4692 49.4354C37.4692 50.4796 37.8841 51.4811 38.6224 52.2195C39.3608 52.9578 40.3623 53.3727 41.4065 53.3727ZM76.8419 14H21.7202C18.9502 14.0215 16.2758 15.0159 14.1646 16.8093C12.0534 18.6027 10.6397 21.0811 10.1706 23.8112C9.70152 26.5413 10.2069 29.3495 11.5984 31.7447C12.9899 34.14 15.1789 35.97 17.7829 36.9149V73.059C17.7829 76.1917 19.0274 79.1961 21.2425 81.4112C23.4577 83.6263 26.462 84.8708 29.5947 84.8708H68.9674C72.1001 84.8708 75.1044 83.6263 77.3196 81.4112C79.5347 79.1961 80.7792 76.1917 80.7792 73.059V36.9149C83.3832 35.97 85.5722 34.14 86.9637 31.7447C88.3552 29.3495 88.8606 26.5413 88.3915 23.8112C87.9224 21.0811 86.5087 18.6027 84.3975 16.8093C82.2863 15.0159 79.6119 14.0215 76.8419 14ZM72.9046 73.059C72.9046 74.1032 72.4898 75.1047 71.7515 75.8431C71.0131 76.5814 70.0116 76.9963 68.9674 76.9963H29.5947C28.5505 76.9963 27.549 76.5814 26.8106 75.8431C26.0723 75.1047 25.6575 74.1032 25.6575 73.059V37.6236H72.9046V73.059ZM76.8419 29.7491H21.7202C20.676 29.7491 19.6745 29.3342 18.9361 28.5959C18.1977 27.8575 17.7829 26.856 17.7829 25.8118C17.7829 24.7676 18.1977 23.7661 18.9361 23.0277C19.6745 22.2894 20.676 21.8745 21.7202 21.8745H76.8419C77.8861 21.8745 78.8876 22.2894 79.626 23.0277C80.3644 23.7661 80.7792 24.7676 80.7792 25.8118C80.7792 26.856 80.3644 27.8575 79.626 28.5959C78.8876 29.3342 77.8861 29.7491 76.8419 29.7491Z" fill="white"/>
</svg>
