<svg width="99" height="99" viewBox="0 0 99 99" fill="none" xmlns="http://www.w3.org/2000/svg">
<path fill-rule="evenodd" clip-rule="evenodd" d="M51.657 14.7568L60.8789 33.2884C61.331 34.2198 62.2209 34.8709 63.2564 35.0279L83.8976 38.01C84.7353 38.1242 85.4919 38.5635 85.9992 39.2302C86.5066 39.8969 86.7226 40.7357 86.5994 41.5601C86.4956 42.2378 86.1662 42.8623 85.6628 43.3352L70.7132 57.8196C69.9576 58.5335 69.6189 59.575 69.8126 60.5887L73.4149 81.0018C73.6756 82.6838 72.5225 84.2621 70.8213 84.552C70.1198 84.6602 69.4015 84.5485 68.7679 84.2324L50.3602 74.6116C49.4406 74.1126 48.3258 74.1126 47.4063 74.6116L28.8904 84.3034C27.337 85.089 25.4313 84.5051 24.6037 82.9899C24.281 82.379 24.1673 81.6816 24.2795 81.0018L27.8818 60.5887C28.056 59.5763 27.7201 58.5436 26.9812 57.8196L11.9236 43.3352C10.6921 42.1049 10.6921 40.1279 11.9236 38.8975C12.4261 38.439 13.0509 38.1311 13.7247 38.01L34.3659 35.0279C35.3965 34.8594 36.2816 34.2119 36.7434 33.2884L45.9653 14.7568C46.3297 14.0054 46.9866 13.4309 47.7869 13.1635C48.5872 12.8961 49.4632 12.9586 50.2161 13.3368C50.8373 13.6472 51.342 14.1446 51.657 14.7568Z" stroke="white" stroke-width="8.02359" stroke-linecap="round" stroke-linejoin="round"/>
</svg>
