<svg width="99" height="99" viewBox="0 0 99 99" fill="none" xmlns="http://www.w3.org/2000/svg">
<path d="M44.7233 21.7629H24.3282C23.6936 21.7629 23.0849 22.015 22.6361 22.4638C22.1873 22.9126 21.9352 23.5213 21.9352 24.1559V44.8956C21.9352 45.5303 22.1873 46.139 22.6361 46.5878C23.0849 47.0366 23.6936 47.2887 24.3282 47.2887H44.7233C45.358 47.2887 45.9667 47.0366 46.4155 46.5878C46.8643 46.139 47.1164 45.5303 47.1164 44.8956V24.1559C47.1164 23.5213 46.8643 22.9126 46.4155 22.4638C45.9667 22.015 45.358 21.7629 44.7233 21.7629ZM42.3303 42.5026H26.7213V26.549H42.3303V42.5026ZM37.7165 31.3351H31.3351V37.7165H37.7165V31.3351ZM12.1907 40.9072C13.037 40.9072 13.8485 40.5711 14.4469 39.9727C15.0453 39.3743 15.3814 38.5627 15.3814 37.7165V18.5722C15.3823 17.7262 15.7187 16.9151 16.3169 16.3169C16.9151 15.7187 17.7262 15.3823 18.5722 15.3814H37.7165C38.5627 15.3814 39.3743 15.0453 39.9727 14.4469C40.5711 13.8485 40.9072 13.037 40.9072 12.1907C40.9072 11.3445 40.5711 10.5329 39.9727 9.93454C39.3743 9.33616 38.5627 9 37.7165 9H18.5722C16.0343 9.00253 13.601 10.0118 11.8064 11.8064C10.0118 13.601 9.00253 16.0343 9 18.5722V37.7165C9 38.5627 9.33616 39.3743 9.93454 39.9727C10.5329 40.5711 11.3445 40.9072 12.1907 40.9072ZM44.7233 50.4794H24.3282C23.6936 50.4794 23.0849 50.7315 22.6361 51.1803C22.1873 51.6291 21.9352 52.2378 21.9352 52.8725V73.6122C21.9352 74.2468 22.1873 74.8555 22.6361 75.3043C23.0849 75.7531 23.6936 76.0052 24.3282 76.0052H44.7233C45.358 76.0052 45.9667 75.7531 46.4155 75.3043C46.8643 74.8555 47.1164 74.2468 47.1164 73.6122V52.8725C47.1164 52.2378 46.8643 51.6291 46.4155 51.1803C45.9667 50.7315 45.358 50.4794 44.7233 50.4794ZM42.3303 71.2191H26.7213V55.2655H42.3303V71.2191ZM37.7165 60.0516H31.3351V66.433H37.7165V60.0516ZM37.7165 82.3866H18.5722C17.7262 82.3858 16.9151 82.0494 16.3169 81.4512C15.7187 80.853 15.3823 80.0419 15.3814 79.1959V60.0516C15.3814 59.2053 15.0453 58.3938 14.4469 57.7954C13.8485 57.197 13.037 56.8609 12.1907 56.8609C11.3445 56.8609 10.5329 57.197 9.93454 57.7954C9.33616 58.3938 9 59.2053 9 60.0516V79.1959C9.00253 81.7338 10.0118 84.1671 11.8064 85.9617C13.601 87.7563 16.0343 88.7656 18.5722 88.7681H37.7165C38.5627 88.7681 39.3743 88.4319 39.9727 87.8336C40.5711 87.2352 40.9072 86.4236 40.9072 85.5774C40.9072 84.7311 40.5711 83.9196 39.9727 83.3212C39.3743 82.7228 38.5627 82.3866 37.7165 82.3866ZM85.5774 56.8609C84.7311 56.8609 83.9196 57.197 83.3212 57.7954C82.7228 58.3938 82.3866 59.2053 82.3866 60.0516V79.1959C82.3858 80.0419 82.0494 80.853 81.4512 81.4512C80.853 82.0494 80.0419 82.3858 79.1959 82.3866H60.0516C59.2053 82.3866 58.3938 82.7228 57.7954 83.3212C57.197 83.9196 56.8609 84.7311 56.8609 85.5774C56.8609 86.4236 57.197 87.2352 57.7954 87.8336C58.3938 88.4319 59.2053 88.7681 60.0516 88.7681H79.1959C81.7338 88.7656 84.1671 87.7563 85.9617 85.9617C87.7563 84.1671 88.7656 81.7338 88.7681 79.1959V60.0516C88.7681 59.2053 88.4319 58.3938 87.8336 57.7954C87.2352 57.197 86.4236 56.8609 85.5774 56.8609ZM58.4562 68.0284H52.0748V74.4098H58.4562V68.0284ZM52.0748 58.4371H58.4562V52.0556H52.0748V58.4371ZM79.1959 9H60.0516C59.2053 9 58.3938 9.33616 57.7954 9.93454C57.197 10.5329 56.8609 11.3445 56.8609 12.1907C56.8609 13.037 57.197 13.8485 57.7954 14.4469C58.3938 15.0453 59.2053 15.3814 60.0516 15.3814H79.1959C80.0419 15.3823 80.853 15.7187 81.4512 16.3169C82.0494 16.9151 82.3858 17.7262 82.3866 18.5722V37.7165C82.3866 38.5627 82.7228 39.3743 83.3212 39.9727C83.9196 40.5711 84.7311 40.9072 85.5774 40.9072C86.4236 40.9072 87.2352 40.5711 87.8336 39.9727C88.4319 39.3743 88.7681 38.5627 88.7681 37.7165V18.5722C88.7656 16.0343 87.7563 13.601 85.9617 11.8064C84.1671 10.0118 81.7338 9.00253 79.1959 9ZM60.0516 37.7165H66.433V31.3351H60.0516V37.7165ZM66.433 66.433V60.0516H60.0516V66.433H66.433ZM73.4399 47.2887C74.0745 47.2887 74.6832 47.0366 75.132 46.5878C75.5808 46.139 75.8329 45.5303 75.8329 44.8956V24.1559C75.8329 23.5213 75.5808 22.9126 75.132 22.4638C74.6832 22.015 74.0745 21.7629 73.4399 21.7629H53.0448C52.4101 21.7629 51.8014 22.015 51.3526 22.4638C50.9038 22.9126 50.6517 23.5213 50.6517 24.1559V44.8956C50.6517 45.5303 50.9038 46.139 51.3526 46.5878C51.8014 47.0366 52.4101 47.2887 53.0448 47.2887H73.4399ZM55.4378 26.549H71.0468V42.5026H55.4378V26.549ZM74.4098 52.0556H68.0284V58.4371H74.4098V52.0556ZM68.0284 74.4098H74.4098V68.0284H68.0284V74.4098Z" fill="white"/>
</svg>
