<svg width="99" height="99" viewBox="0 0 99 99" fill="none" xmlns="http://www.w3.org/2000/svg">
<path d="M90.2492 58.2241L90.2247 58.1914L90.1952 58.1631C87.8086 55.876 86.5114 52.6892 86.5114 49.3963C86.5114 46.1096 87.8046 43.0202 90.2028 40.622C90.5245 40.3003 90.8423 40.0482 91.2437 39.7298C91.3254 39.665 91.4106 39.5974 91.5 39.5259C92.4271 38.8554 92.6507 37.6915 92.4088 36.7242L92.409 36.7242L92.4058 36.7125C91.5641 33.6614 90.3035 30.7221 88.8373 27.9992L88.8375 27.9991L88.8312 27.9882C88.3162 27.0869 87.2906 26.5741 86.2606 26.7029L86.2605 26.7028L86.2519 26.704C85.5631 26.8024 85.0743 26.8027 84.5592 26.8027C77.6757 26.8027 72.0936 21.2153 72.0936 14.4408C72.0936 13.9173 72.0946 13.3351 72.1905 12.7596L72.1921 12.7496L72.1934 12.7394C72.3222 11.7093 71.8094 10.6838 70.9081 10.1688L70.9082 10.1687L70.8971 10.1627C68.1742 8.69652 65.2349 7.43594 62.1838 6.59425L62.1838 6.59411L62.1721 6.59117C61.1588 6.33785 60.028 6.71036 59.3847 7.48223L59.3846 7.48217L59.3784 7.48998C58.9574 8.01626 58.5644 8.50628 58.2779 8.79357C55.8777 11.092 52.7861 12.3849 49.5 12.3849C46.206 12.3849 43.0151 11.0866 40.7257 8.7972C40.404 8.47552 40.1519 8.15774 39.8336 7.75641C39.7687 7.67465 39.7011 7.58943 39.6296 7.5C38.959 6.57292 37.7952 6.34935 36.8279 6.59117L36.8144 6.59457L36.801 6.59871C33.7706 7.53919 30.8349 8.69161 28.1029 10.1627L28.1029 10.1625L28.0919 10.1688C27.1906 10.6838 26.6778 11.7093 26.8066 12.7394L26.8065 12.7395L26.8078 12.7481C26.9062 13.4369 26.9065 13.9257 26.9065 14.4408C26.9065 21.3165 21.3269 26.8027 14.4408 26.8027C13.9173 26.8027 13.3351 26.8017 12.7596 26.7058L12.7496 26.7041L12.7394 26.7029C11.7093 26.5741 10.6838 27.0869 10.1688 27.9882L10.1687 27.9881L10.1627 27.9992C8.69652 30.7221 7.43594 33.6614 6.59425 36.7125L6.59411 36.7125L6.59117 36.7242C6.34834 37.6956 6.5748 38.8651 7.5117 39.5343L7.51827 39.539L7.52497 39.5435C8.10342 39.9291 8.48898 40.3138 8.79718 40.622L8.80087 40.6256C13.6812 45.4064 13.6865 53.2812 8.7972 58.1706C8.47552 58.4923 8.15772 58.7443 7.75637 59.0627C7.67464 59.1276 7.58945 59.1951 7.50005 59.2666C6.57293 59.9372 6.34935 61.101 6.59117 62.0683L6.59457 62.0819L6.59871 62.0953C7.53919 65.1257 8.69161 68.0613 10.1627 70.7933L10.1625 70.7934L10.1688 70.8044C10.6838 71.7057 11.7093 72.2184 12.7394 72.0897L12.7395 72.0898L12.7481 72.0885C13.4369 71.9901 13.9257 71.9898 14.4408 71.9898C21.3243 71.9898 26.9065 77.5772 26.9065 84.3518C26.9065 84.8752 26.9054 85.4574 26.8095 86.0329L26.8079 86.043L26.8066 86.0531C26.6778 87.0832 27.1906 88.1087 28.0919 88.6237L28.0918 88.6239L28.1029 88.6299C30.8258 90.096 33.7651 91.3566 36.8162 92.1983L36.8162 92.1984L36.8279 92.2014C37.7952 92.4432 38.959 92.2196 39.6296 91.2926C40.0476 90.7701 40.4374 90.2845 40.722 89.999C43.1223 87.7006 46.2139 86.4077 49.5 86.4077C52.794 86.4077 55.9849 87.706 58.2743 89.9953C58.596 90.317 58.8481 90.6348 59.1665 91.0362C59.2337 91.121 59.3039 91.2095 59.3784 91.3026C59.8809 91.9306 60.6428 92.32 61.4284 92.32L61.4524 92.3201C61.6406 92.3203 61.9331 92.3207 62.2334 92.1831C65.2517 91.2446 68.1754 90.0954 70.8971 88.6299L70.8971 88.63L70.9081 88.6237C71.8094 88.1087 72.3222 87.0832 72.1934 86.0531L72.1935 86.0531L72.1922 86.0444C72.0938 85.3556 72.0936 84.8669 72.0936 84.3518C72.0936 77.4761 77.6731 71.9898 84.5592 71.9898C85.0827 71.9898 85.6649 71.9908 86.2404 72.0867L86.2504 72.0884L86.2606 72.0897C87.2906 72.2184 88.3162 71.7057 88.8312 70.8044L88.8313 70.8044L88.8373 70.7933C90.3035 68.0705 91.5641 65.1312 92.4058 62.08L92.4059 62.0801L92.4088 62.0683C92.6507 61.101 92.427 59.937 91.4997 59.2665C91.3559 59.1518 91.1865 59.0257 91.0336 58.9117C90.9273 58.8326 90.829 58.7593 90.7526 58.6999C90.5285 58.5256 90.3639 58.3769 90.2492 58.2241ZM12.2039 36.9096L12.2039 36.9096L12.2012 36.9068L11.8024 36.508C12.3607 34.9554 13.0004 33.4021 13.7217 31.848H14.337C24.0502 31.848 31.9518 23.9505 31.9518 14.337V13.714C33.4209 12.9947 34.9727 12.356 36.6076 11.7982L37.0106 12.2012C40.3199 15.5105 44.6999 17.3264 49.3963 17.3264C54.0927 17.3264 58.4726 15.5105 61.782 12.2012L62.1808 11.8024C63.7334 12.3607 65.2867 13.0004 66.8408 13.7217V14.337C66.8408 24.0562 74.7443 31.848 84.4555 31.848H85.0786C85.7978 33.3172 86.4365 34.869 86.9944 36.5038L86.5914 36.9068C83.282 40.2162 81.4661 44.5961 81.4661 49.2925C81.4661 53.989 83.282 58.3689 86.5914 61.6783L86.9981 62.085C86.4398 63.8064 85.8 65.3669 85.0786 66.8408H84.4555C74.7423 66.8408 66.8408 74.7384 66.8408 84.3518V84.9748C65.3717 85.6941 63.8198 86.3328 62.185 86.8906L61.782 86.4876C58.4726 83.1783 54.0927 81.3624 49.3963 81.3624C44.6999 81.3624 40.3199 83.1783 37.0106 86.4876L36.6117 86.8864C35.0592 86.3281 33.5058 85.6884 31.9518 84.9671V84.3518C31.9518 74.6327 24.0482 66.8408 14.337 66.8408H13.714C12.9947 65.3717 12.356 63.8198 11.7982 62.185L12.2012 61.782C19.0364 54.9468 19.0325 43.8448 12.2039 36.9096ZM49.5 24.2096C35.6358 24.2096 24.3133 35.5321 24.3133 49.3963C24.3133 63.2605 35.6358 74.583 49.5 74.583C63.3642 74.583 74.6867 63.2605 74.6867 49.3963C74.6867 35.5321 63.3642 24.2096 49.5 24.2096ZM49.5 69.4339C38.4701 69.4339 29.4623 60.4262 29.4623 49.3963C29.4623 38.3663 38.4701 29.3586 49.5 29.3586C60.5299 29.3586 69.5377 38.3663 69.5377 49.3963C69.5377 60.4262 60.5299 69.4339 49.5 69.4339Z" fill="white" stroke="white"/>
</svg>
