<svg width="99" height="99" viewBox="0 0 99 99" fill="none" xmlns="http://www.w3.org/2000/svg">
<path d="M82 50C82 48.9391 81.5786 47.9217 80.8284 47.1716C80.0783 46.4214 79.0609 46 78 46L47.64 46L56.84 36.84C57.2149 36.4682 57.5125 36.0257 57.7156 35.5383C57.9186 35.0509 58.0232 34.5281 58.0232 34C58.0232 33.472 57.9186 32.9491 57.7156 32.4617C57.5125 31.9743 57.2149 31.5319 56.84 31.16C56.4682 30.7851 56.0257 30.4875 55.5383 30.2844C55.0509 30.0814 54.5281 29.9768 54 29.9768C53.472 29.9768 52.9491 30.0814 52.4617 30.2844C51.9743 30.4875 51.5319 30.7851 51.16 31.16L35.16 47.16C34.7958 47.5404 34.5104 47.989 34.32 48.48C33.9199 49.4538 33.9199 50.5462 34.32 51.52C34.5104 52.011 34.7958 52.4596 35.16 52.84L51.16 68.84C51.533 69.213 51.9757 69.5088 52.463 69.7106C52.9503 69.9125 53.4726 70.0164 54 70.0164C54.5274 70.0164 55.0497 69.9125 55.537 69.7106C56.0243 69.5088 56.467 69.213 56.84 68.84C57.213 68.467 57.5088 68.0243 57.7106 67.537C57.9125 67.0497 58.0164 66.5274 58.0164 66C58.0164 65.4726 57.9125 64.9503 57.7106 64.463C57.5088 63.9757 57.213 63.533 56.84 63.16L47.64 54L78 54C79.0609 54 80.0783 53.5786 80.8284 52.8284C81.5786 52.0783 82 51.0609 82 50ZM30 90L70 90C73.1826 90 76.2348 88.7357 78.4853 86.4853C80.7357 84.2348 82 81.1826 82 78L82 66C82 64.9391 81.5786 63.9217 80.8284 63.1716C80.0783 62.4214 79.0609 62 78 62C76.9391 62 75.9217 62.4214 75.1716 63.1716C74.4214 63.9217 74 64.9391 74 66L74 78C74 79.0609 73.5786 80.0783 72.8284 80.8284C72.0783 81.5786 71.0609 82 70 82L30 82C28.9391 82 27.9217 81.5786 27.1716 80.8284C26.4214 80.0783 26 79.0609 26 78L26 22C26 20.9391 26.4214 19.9217 27.1716 19.1716C27.9217 18.4214 28.9391 18 30 18L70 18C71.0609 18 72.0783 18.4214 72.8284 19.1716C73.5786 19.9217 74 20.9391 74 22L74 34C74 35.0609 74.4214 36.0783 75.1716 36.8284C75.9217 37.5786 76.9391 38 78 38C79.0609 38 80.0783 37.5786 80.8284 36.8284C81.5786 36.0783 82 35.0609 82 34L82 22C82 18.8174 80.7357 15.7652 78.4853 13.5147C76.2349 11.2643 73.1826 10 70 10L30 10C26.8174 10 23.7652 11.2643 21.5147 13.5147C19.2643 15.7652 18 18.8174 18 22L18 78C18 81.1826 19.2643 84.2348 21.5147 86.4853C23.7652 88.7357 26.8174 90 30 90Z" fill="white"/>
</svg>
