<svg width="99" height="99" viewBox="0 0 99 99" fill="none" xmlns="http://www.w3.org/2000/svg">
<path d="M87.7361 55.4819C86.3756 53.6014 85.6432 51.3396 85.6432 49.0187C85.6432 46.6977 86.3756 44.4359 87.7361 42.5554L90.5441 38.6779C90.8844 38.2087 91.1089 37.6657 91.1992 37.0931C91.2896 36.5206 91.2433 35.9349 91.0641 35.3837C90.8849 34.8325 90.5779 34.3315 90.1682 33.9216C89.7584 33.5116 89.2575 33.2045 88.7064 33.0251L84.1893 31.5549C81.9764 30.8384 80.0476 29.4389 78.68 27.5575C77.3124 25.6761 76.5763 23.4096 76.5775 21.0836V16.3056C76.5776 15.7261 76.4408 15.1548 76.1781 14.6384C75.9155 14.1219 75.5344 13.6748 75.066 13.3336C74.5976 12.9925 74.0552 12.7669 73.4831 12.6753C72.9109 12.5837 72.3252 12.6287 71.7737 12.8066L67.1978 14.2767C64.9881 14.9888 62.61 14.9853 60.4024 14.2666C58.1949 13.5479 56.2705 12.1507 54.9035 10.2742L52.0918 6.42237C51.7346 5.97836 51.2824 5.62009 50.7685 5.37394C50.2546 5.12778 49.6919 5 49.1221 5C48.5522 5 47.9896 5.12778 47.4757 5.37394C46.9618 5.62009 46.5096 5.97836 46.1524 6.42237L43.3407 10.2816C41.9737 12.1581 40.0493 13.5552 37.8417 14.2739C35.6342 14.9926 33.2561 14.9962 31.0464 14.2841L26.4705 12.8139C25.9196 12.6362 25.3346 12.5911 24.763 12.6824C24.1914 12.7736 23.6494 12.9985 23.1812 13.3388C22.713 13.6791 22.3317 14.1252 22.0686 14.6408C21.8054 15.1563 21.6677 15.7267 21.6667 16.3056V21.0836C21.6679 23.4096 20.9318 25.6761 19.5642 27.5575C18.1966 29.4389 16.2678 30.8384 14.0549 31.5549L9.53784 33.0251C8.9867 33.2045 8.4858 33.5116 8.07604 33.9216C7.66628 34.3315 7.35926 34.8325 7.18007 35.3837C7.00088 35.9349 6.95458 36.5206 7.04496 37.0931C7.13535 37.6657 7.35984 38.2087 7.70013 38.6779L10.5081 42.5518C11.8686 44.4322 12.601 46.694 12.601 49.015C12.601 51.336 11.8686 53.5978 10.5081 55.4782L7.70013 59.3558C7.35984 59.825 7.13535 60.368 7.04496 60.9405C6.95458 61.513 7.00088 62.0988 7.18007 62.65C7.35926 63.2012 7.66628 63.7022 8.07604 64.1121C8.4858 64.522 8.9867 64.8292 9.53784 65.0086L14.0549 66.4787C16.2678 67.1953 18.1966 68.5947 19.5642 70.4762C20.9318 72.3576 21.6679 74.624 21.6667 76.95V81.7281C21.6668 82.308 21.8041 82.8798 22.0674 83.3966C22.3307 83.9133 22.7126 84.3604 23.1818 84.7013C23.6511 85.0423 24.1943 85.2673 24.7672 85.358C25.34 85.4487 25.9262 85.4026 26.4778 85.2234L31.0207 83.7532C33.2347 83.0274 35.6222 83.0244 37.8381 83.7445C40.0541 84.4647 41.9836 85.8707 43.348 87.7594L46.1487 91.6113C46.4896 92.0805 46.9368 92.4624 47.4535 92.7257C47.9703 92.989 48.5421 93.1262 49.1221 93.1262C49.7021 93.1262 50.2739 92.989 50.7907 92.7257C51.3074 92.4624 51.7546 92.0805 52.0955 91.6113L54.8962 87.7594C56.2613 85.8716 58.1909 84.4662 60.4066 83.7462C62.6222 83.0261 65.0094 83.0286 67.2235 83.7532L71.7664 85.2234C72.318 85.4026 72.9042 85.4487 73.477 85.358C74.0499 85.2673 74.5931 85.0423 75.0624 84.7013C75.5316 84.3604 75.9135 83.9133 76.1768 83.3966C76.4401 82.8798 76.5774 82.308 76.5775 81.7281V76.95C76.5732 74.6215 77.3078 72.3517 78.6757 70.4674C80.0435 68.583 81.974 67.1813 84.1893 66.464L88.7064 64.9939C89.2575 64.8145 89.7584 64.5073 90.1682 64.0974C90.5779 63.6875 90.8849 63.1865 91.0641 62.6353C91.2433 62.0841 91.2896 61.4983 91.1992 60.9258C91.1089 60.3533 90.8844 59.8103 90.5441 59.3411L87.7361 55.4819ZM81.6349 59.5836C78.057 60.8045 74.9442 63.1018 72.7228 66.1607C70.5015 69.2197 69.2803 72.8906 69.2266 76.6707C65.6116 75.551 61.7387 75.5774 58.1392 76.7461C54.5397 77.9147 51.3899 80.1685 49.1221 83.1982C47.4167 80.9172 45.2029 79.0651 42.6566 77.7891C40.1103 76.5131 37.3016 75.8482 34.4535 75.8474C32.6108 75.8487 30.7787 76.125 29.0176 76.667C28.9634 72.8871 27.742 69.2164 25.5207 66.1575C23.2995 63.0987 20.1869 60.8013 16.6093 59.58C18.7887 56.4873 19.9585 52.7965 19.9585 49.0131C19.9585 45.2298 18.7887 41.5389 16.6093 38.4463C20.1881 37.2246 23.3015 34.9261 25.5228 31.8658C27.7442 28.8055 28.9649 25.1331 29.0176 21.3519C32.6316 22.4716 36.5034 22.4465 40.1026 21.2799C43.7017 20.1133 46.8521 17.8623 49.1221 14.8354C51.3903 17.8647 54.54 20.1182 58.1394 21.2868C61.7388 22.4554 65.6116 22.482 69.2266 21.363C69.2786 25.1447 70.4989 28.8179 72.7203 31.879C74.9417 34.94 78.0555 37.2391 81.6349 38.461C79.458 41.5526 78.2896 45.2413 78.2896 49.0223C78.2896 52.8034 79.458 56.4921 81.6349 59.5836Z" fill="white"/>
<path d="M61.2256 39.0675L45.447 54.8461L37.0193 46.4183C36.6803 46.0673 36.2747 45.7873 35.8263 45.5947C35.3779 45.402 34.8956 45.3007 34.4076 45.2964C33.9195 45.2922 33.4356 45.3852 32.9839 45.57C32.5322 45.7548 32.1218 46.0277 31.7767 46.3728C31.4316 46.7179 31.1587 47.1282 30.9739 47.5799C30.7891 48.0316 30.6961 48.5156 30.7003 49.0036C30.7046 49.4917 30.806 49.9739 30.9986 50.4224C31.1912 50.8708 31.4712 51.2763 31.8223 51.6154L42.8485 62.6416C43.5378 63.3307 44.4724 63.7178 45.447 63.7178C46.4216 63.7178 47.3563 63.3307 48.0456 62.6416L66.4227 44.2645C67.0922 43.5713 67.4626 42.6429 67.4543 41.6792C67.4459 40.7156 67.0593 39.7937 66.3779 39.1123C65.6964 38.4308 64.7746 38.0443 63.8109 38.0359C62.8472 38.0275 61.9188 38.398 61.2256 39.0675Z" fill="white"/>
</svg>
