<svg width="65" height="64" viewBox="0 0 65 64" fill="none" xmlns="http://www.w3.org/2000/svg">
<path d="M32.5859 64C14.9399 64 0.585938 49.6461 0.585938 32C0.585938 14.3539 14.9399 0 32.5859 0C50.232 0 64.5859 14.3539 64.5859 32C64.5859 49.6461 50.232 64 32.5859 64ZM32.5859 5.12C17.7635 5.12 5.70594 17.1776 5.70594 32C5.70594 46.8224 17.7635 58.88 32.5859 58.88C47.4083 58.88 59.4659 46.8198 59.4659 32C59.4659 17.1802 47.4083 5.12 32.5859 5.12Z" fill="white"/>
<path d="M32.5854 49.9198C31.9064 49.9198 31.2553 49.6501 30.7752 49.17C30.2951 48.6899 30.0254 48.0388 30.0254 47.3598V16.6398C30.0254 15.9609 30.2951 15.3097 30.7752 14.8296C31.2553 14.3495 31.9064 14.0798 32.5854 14.0798C33.2643 14.0798 33.9155 14.3495 34.3956 14.8296C34.8757 15.3097 35.1454 15.9609 35.1454 16.6398V47.3598C35.1454 48.0388 34.8757 48.6899 34.3956 49.17C33.9155 49.6501 33.2643 49.9198 32.5854 49.9198Z" fill="white"/>
<path d="M47.946 34.5599H17.226C16.5471 34.5599 15.8959 34.2902 15.4158 33.8101C14.9357 33.33 14.666 32.6789 14.666 31.9999C14.666 31.321 14.9357 30.6698 15.4158 30.1897C15.8959 29.7097 16.5471 29.4399 17.226 29.4399H47.946C48.625 29.4399 49.2761 29.7097 49.7562 30.1897C50.2363 30.6698 50.506 31.321 50.506 31.9999C50.506 32.6789 50.2363 33.33 49.7562 33.8101C49.2761 34.2902 48.625 34.5599 47.946 34.5599Z" fill="white"/>
</svg>
