<svg width="65" height="64" viewBox="0 0 65 64" fill="none" xmlns="http://www.w3.org/2000/svg">
<path d="M10.1464 9.4153C15.3718 4.14789 22.2686 0.871388 29.6476 0.15066C37.0266 -0.570067 44.4255 1.31015 50.5687 5.46715C56.7119 9.62416 61.2144 15.7974 63.2999 22.9227C65.3855 30.048 64.9235 37.6788 61.9934 44.4995C61.6881 45.1334 61.5879 45.847 61.7068 46.5407L64.5094 60.0322C64.6173 60.5494 64.5953 61.0854 64.4452 61.5921C64.2951 62.0987 64.0217 62.56 63.6495 62.9346C63.3444 63.2379 62.9811 63.4763 62.5816 63.6352C62.182 63.7942 61.7544 63.8705 61.3247 63.8595H60.6877L47.0572 61.1166C46.3644 61.0332 45.6619 61.1321 45.019 61.4036C38.2085 64.338 30.5891 64.8008 23.4744 62.7121C16.3598 60.6234 10.1957 56.1141 6.04494 49.9618C1.89414 43.8094 0.0167236 36.3995 0.736378 29.0094C1.45603 21.6194 4.72764 14.7123 9.98718 9.47908L10.1464 9.4153ZM7.50311 36.0793C8.12577 39.8874 9.60279 43.5045 11.823 46.6584C14.0432 49.8123 16.9488 52.4207 20.3211 54.2875C23.6934 56.1542 27.4445 57.2306 31.2922 57.4356C35.1398 57.6407 38.9839 56.969 42.5349 55.4712C43.7943 54.9347 45.1472 54.6529 46.5158 54.642C47.1136 54.6462 47.7101 54.6995 48.2992 54.8014L57.2801 56.6194L55.4648 47.6251C55.1033 45.6772 55.3363 43.6654 56.1336 41.8522C57.6292 38.2958 58.2998 34.4461 58.0951 30.5927C57.8903 26.7392 56.8156 22.9825 54.9516 19.6052C53.0877 16.2279 50.4831 13.3179 47.3339 11.0944C44.1848 8.87085 40.573 7.39163 36.7706 6.76804C32.7793 6.11201 28.6894 6.41711 24.8391 7.65809C20.9889 8.89907 17.489 11.0403 14.629 13.9046C11.769 16.7689 9.63097 20.274 8.39184 24.13C7.15271 27.986 6.84807 32.082 7.50311 36.0793Z" fill="white"/>
<circle cx="45.0026" cy="31.5833" r="4.58333" transform="rotate(90 45.0026 31.5833)" fill="white"/>
<circle cx="33.0856" cy="31.5833" r="4.58333" transform="rotate(90 33.0856 31.5833)" fill="white"/>
<circle cx="21.1696" cy="31.5833" r="4.58333" transform="rotate(90 21.1696 31.5833)" fill="white"/>
</svg>
