<svg width="60" height="65" viewBox="0 0 60 65" fill="none" xmlns="http://www.w3.org/2000/svg">
<path d="M58.3695 44.3467L58.3691 44.346L58.3677 44.3437C56.6707 41.4124 54.4866 35.6328 54.4866 25.1935C54.4866 21.9507 53.8479 18.7396 52.607 15.7437C51.366 12.7477 49.5471 10.0255 47.2541 7.73255C44.9611 5.43955 42.2389 3.62064 39.243 2.37968C36.247 1.13871 33.036 0.5 29.7932 0.5C26.5504 0.5 23.3394 1.13871 20.3434 2.37968C17.3475 3.62064 14.6253 5.43955 12.3323 7.73255C10.0393 10.0255 8.22038 12.7477 6.97941 15.7437C5.73845 18.7396 5.09974 21.9507 5.09974 25.1935C5.09974 35.6328 2.91572 41.4124 1.21863 44.3437L1.2172 44.3462L1.21689 44.3467C0.748048 45.1588 0.500833 46.0798 0.500002 47.0174C0.499171 47.9551 0.744759 48.8765 1.21216 49.6894C1.67956 50.5023 2.35236 51.178 3.16317 51.649C3.97398 52.12 4.89432 52.3696 5.83197 52.3729L5.83284 52.3729L5.84138 52.373H5.84228H53.7441H53.745L53.7535 52.3729L53.7544 52.3729C54.6921 52.3696 55.6124 52.12 56.4232 51.649C57.234 51.178 57.9068 50.5023 58.3742 49.6894C58.8416 48.8765 59.0872 47.9551 59.0864 47.0174C59.0856 46.0798 58.8383 45.1588 58.3695 44.3467ZM22.5824 7.78513C24.8685 6.8382 27.3187 6.35082 29.7932 6.35082C32.2676 6.35082 34.7179 6.8382 37.004 7.78513C39.2901 8.73206 41.3672 10.12 43.1169 11.8697C44.8666 13.6194 46.2546 15.6966 47.2015 17.9827C48.1484 20.2688 48.6358 22.719 48.6358 25.1935C48.6358 35.7808 50.7225 42.4524 52.8865 46.5222H6.69988C8.86388 42.4524 10.9506 35.7809 10.9506 25.1935C10.9506 22.719 11.4379 20.2688 12.3849 17.9827C13.3318 15.6966 14.7197 13.6194 16.4694 11.8697C18.2191 10.12 20.2963 8.73206 22.5824 7.78513Z" fill="white" stroke="white" stroke-linecap="round" stroke-linejoin="round"/>
<path d="M23.0178 49.4474C23.0178 47.8317 21.7081 46.522 20.0924 46.522C18.4767 46.522 17.167 47.8317 17.167 49.4474V51.8728C17.167 55.2217 18.4973 58.4334 20.8654 60.8015C23.2334 63.1695 26.4451 64.4998 29.794 64.4998C33.1429 64.4998 36.3547 63.1695 38.7227 60.8015C41.0907 58.4334 42.4211 55.2217 42.4211 51.8728V49.4474C42.4211 47.8317 41.1113 46.522 39.4957 46.522C37.88 46.522 36.5703 47.8317 36.5703 49.4474V51.8728C36.5703 53.67 35.8563 55.3935 34.5856 56.6643C33.3148 57.9351 31.5912 58.649 29.794 58.649C27.9969 58.649 26.2733 57.9351 25.0025 56.6643C23.7317 55.3935 23.0178 53.67 23.0178 51.8728V49.4474Z" fill="white" stroke="white" stroke-linecap="round" stroke-linejoin="round"/>
</svg>
