<svg width="342" height="47" viewBox="0 0 342 47" fill="none" xmlns="http://www.w3.org/2000/svg">
<path d="M60.4649 6.74262C60.4649 4.76288 61.8224 3.40535 63.8021 3.40535H63.9153C65.895 3.40535 67.2525 4.76288 67.2525 6.74262V33.0448C67.2525 35.1942 68.7232 36.6649 70.8726 36.6649H82.9772C84.8439 36.6649 86.0883 37.9093 86.0883 39.7759C86.0883 41.7556 84.8439 43 82.9772 43H65.2728C62.388 43 60.4649 41.0768 60.4649 38.1921V6.74262ZM87.9522 23.2027C87.9522 9.40111 98.1337 2.50033 108.372 2.50033C118.553 2.50033 128.735 9.40111 128.735 23.2027C128.735 37.0042 118.553 43.905 108.372 43.905C98.1337 43.905 87.9522 37.0042 87.9522 23.2027ZM108.372 9.34455C101.471 9.34455 94.6267 13.9262 94.6267 23.2027C94.6267 32.4791 101.471 37.0608 108.372 37.0608C115.216 37.0608 122.117 32.4791 122.117 23.2027C122.117 13.9262 115.216 9.34455 108.372 9.34455ZM154.661 43.8485C127.454 43.8485 127.454 2.5569 154.661 2.5569C157.716 2.5569 160.827 3.34879 163.598 4.76288C165.352 5.66791 165.748 7.59107 164.503 9.34455C163.825 10.3061 162.863 10.8152 161.732 10.8152C161.11 10.8152 160.431 10.6455 159.695 10.3627C158.281 9.7405 156.584 9.28799 154.718 9.28799C136.9 9.28799 136.9 37.1174 154.718 37.1174C156.867 37.1174 158.451 36.7214 159.752 36.1558C160.487 35.873 161.166 35.7033 161.788 35.7033C162.92 35.7033 163.825 36.1558 164.56 37.1174C165.748 38.8143 165.408 40.794 163.768 41.7556C161.279 43.1697 158.451 43.8485 154.661 43.8485ZM177.077 43C174.192 43 173.061 41.2465 174.305 38.6446L188.163 8.26984C189.125 6.23354 190.2 5.27196 191.274 5.27196C192.349 5.27196 193.424 6.23354 194.329 8.26984L208.243 38.588C209.431 41.2465 208.3 43 205.415 43C204.058 43 202.87 42.2081 202.304 41.0768L201.965 40.3415C201.173 38.588 199.363 37.4567 197.496 37.4567H185.052C183.129 37.4567 181.319 38.588 180.527 40.3415L180.244 41.0203C179.679 42.2081 178.434 43 177.133 43H177.077ZM186.353 27.7843C185.392 29.7641 186.24 31.1216 188.446 31.1216H194.046C196.252 31.1216 197.1 29.7641 196.195 27.7843L192.802 20.4311C192.349 19.4129 191.84 18.9604 191.274 18.9604C190.765 18.9604 190.2 19.4129 189.747 20.4311L186.353 27.7843Z" fill="white"/>
<path d="M216.568 6.74262C216.568 4.76288 217.925 3.40535 219.905 3.40535H220.018C221.998 3.40535 223.355 4.76288 223.355 6.74262V33.0448C223.355 35.1942 224.826 36.6649 226.975 36.6649H239.08C240.947 36.6649 242.191 37.9093 242.191 39.7759C242.191 41.7556 240.947 43 239.08 43H221.376C218.491 43 216.568 41.0768 216.568 38.1921V6.74262ZM248.55 39.6627V6.74262C248.55 4.76288 249.908 3.40535 251.888 3.40535C253.981 3.40535 255.338 4.76288 255.338 6.74262V39.6627C255.338 41.6425 253.981 43 252.001 43C249.908 43 248.55 41.6425 248.55 39.6627ZM263.962 4.93258C263.962 4.02756 264.584 3.40535 265.489 3.40535C265.942 3.40535 266.451 3.63161 266.734 3.91443L287.266 25.9743C287.832 26.5399 288.284 26.8228 288.68 26.8228C289.189 26.8228 289.472 26.2571 289.472 25.1258V6.74262C289.472 4.76288 290.83 3.40535 292.809 3.40535C294.902 3.40535 296.26 4.76288 296.26 6.74262V41.4728C296.26 42.3778 295.638 43 294.733 43C294.28 43 293.771 42.7737 293.488 42.4344L272.956 20.3179C272.39 19.7523 271.937 19.4695 271.541 19.4695C271.032 19.4695 270.75 20.0351 270.75 21.1664V39.6627C270.75 41.6425 269.392 43 267.412 43C265.319 43 263.962 41.6425 263.962 39.6627V4.93258ZM304.838 39.6627V6.74262C304.838 4.76288 306.196 3.40535 308.175 3.40535C310.268 3.40535 311.626 4.76288 311.626 6.74262V18.2816C311.626 19.3563 311.909 19.922 312.304 19.922C312.644 19.922 313.04 19.5826 313.549 18.9604L324.805 4.93258C325.54 4.02756 326.841 3.40535 328.029 3.40535C331.649 3.40535 332.498 5.21539 330.292 7.98702L322.938 17.2069C321.807 18.621 321.807 20.5442 322.938 22.0148L335.043 37.683C337.475 40.8506 336.457 43 332.441 43C331.536 43 330.631 42.5475 330.122 41.9253L318.809 27.1621C318.244 26.4268 317.565 26.0874 316.886 26.0874C316.264 26.0874 315.585 26.4268 315.02 27.1621L313.549 28.9722C312.418 30.4428 311.626 32.5923 311.626 34.4589V39.6627C311.626 41.6425 310.268 43 308.288 43H308.175C306.196 43 304.838 41.6425 304.838 39.6627Z" fill="#2AF89B"/>
<path d="M26.3077 7.77621C24.8991 4.65131 22.5605 2.99852 21.7541 2.4405C18.2058 0.00116519 14.5715 -0.00946371 13.2973 0.00116519C11.7436 0.0171085 7.92113 0.0649385 4.64704 2.81251C1.55573 5.41128 0.824568 8.84972 0.49662 10.3962C-0.739902 16.2368 1.81916 21.0092 2.6901 22.4813C4.36747 25.1491 6.76525 28.8958 9.67377 33.2484C10.0447 33.8064 10.7813 34.864 12.1146 35.3954C13.5339 35.964 15.0876 35.778 16.222 35.1137C18.5283 33.7639 19.0391 30.9153 17.4585 28.3856C14.7919 24.1075 12.0823 19.856 9.45334 15.5566C8.9426 14.7222 8.5609 13.2341 8.8996 11.6026C8.94798 11.3635 9.00712 11.1775 9.01787 11.1349C9.01787 11.1349 9.35657 10.1358 10.378 9.36523C11.7651 8.31828 15.3456 8.01004 17.0499 10.1039C17.0499 10.1039 18.2111 11.4219 18.0714 13.3458C18.0337 13.8772 18.0122 14.3289 17.6305 15.1048C17.2542 15.8648 16.8133 16.6407 16.6789 17.4591C16.308 19.6859 17.5069 21.615 19.5337 22.3059C20.4853 22.6301 21.4422 22.6514 22.3186 22.4016C23.7486 21.9977 24.5497 20.9401 25.012 20.3289C26.7593 17.9906 28.5764 12.8196 26.2969 7.77089L26.3077 7.77621Z" fill="#2AF89B"/>
<path d="M22.0236 38.6229C23.4321 41.7477 25.7708 43.4004 26.5772 43.9584C30.1255 46.403 33.7598 46.4136 35.0339 46.3977C36.5877 46.3818 40.4101 46.3339 43.6842 43.5864C46.7755 40.9877 47.5067 37.5494 47.8346 36.0029C49.0712 30.1625 46.5121 25.3902 45.6411 23.9182C43.9638 21.2504 41.566 17.5038 38.6575 13.1514C38.2865 12.5934 37.55 11.5359 36.2167 11.0044C34.7974 10.4358 33.2437 10.6218 32.1093 11.2861C29.8029 12.6359 29.2922 15.4844 30.8728 18.014C33.5394 22.292 36.249 26.5435 38.8779 30.8427C39.3886 31.6771 39.7704 33.1651 39.4317 34.7966C39.3833 35.0357 39.3241 35.2217 39.3134 35.2642C39.3134 35.2642 38.9747 36.2633 37.9532 37.0339C36.5661 38.0808 32.9856 38.389 31.2814 36.2952C31.2814 36.2952 30.1201 34.9773 30.2599 33.0535C30.2975 32.522 30.319 32.0703 30.7007 31.2944C31.0771 30.5345 31.5179 29.7586 31.6523 28.9402C32.0233 26.7135 30.8244 24.7844 28.7976 24.0936C27.846 23.7694 26.889 23.7481 26.0127 23.9979C24.5826 24.4018 23.7816 25.4593 23.3192 26.0705C21.572 28.4088 19.7548 33.5796 22.0343 38.6282L22.0236 38.6229Z" fill="#2AF89B"/>
</svg>
