<svg width="671" height="690" viewBox="0 0 671 690" fill="none" xmlns="http://www.w3.org/2000/svg">
<path d="M10.0935 601.923C10.0935 597.274 13.281 594.087 17.9293 594.087H18.1949C22.8433 594.087 26.0307 597.274 26.0307 601.923V663.679C26.0307 668.726 29.4838 672.179 34.5305 672.179H62.9518C67.3345 672.179 70.2564 675.101 70.2564 679.484C70.2564 684.132 67.3345 687.054 62.9518 687.054H21.3824C14.6091 687.054 10.0935 682.538 10.0935 675.765V601.923ZM74.6329 640.57C74.6329 608.165 98.5386 591.962 122.577 591.962C146.483 591.962 170.389 608.165 170.389 640.57C170.389 672.976 146.483 689.179 122.577 689.179C98.5386 689.179 74.6329 672.976 74.6329 640.57ZM122.577 608.032C106.374 608.032 90.3044 618.789 90.3044 640.57C90.3044 662.351 106.374 673.109 122.577 673.109C138.647 673.109 154.85 662.351 154.85 640.57C154.85 618.789 138.647 608.032 122.577 608.032ZM231.263 689.046C167.382 689.046 167.382 592.095 231.263 592.095C238.435 592.095 245.74 593.954 252.247 597.274C256.364 599.399 257.294 603.915 254.372 608.032C252.778 610.29 250.521 611.485 247.864 611.485C246.404 611.485 244.81 611.087 243.083 610.422C239.763 608.962 235.779 607.899 231.396 607.899C189.561 607.899 189.561 673.241 231.396 673.241C236.443 673.241 240.162 672.312 243.216 670.984C244.943 670.32 246.536 669.921 247.997 669.921C250.654 669.921 252.778 670.984 254.505 673.241C257.294 677.226 256.497 681.874 252.646 684.132C246.802 687.452 240.162 689.046 231.263 689.046ZM283.894 687.054C277.121 687.054 274.465 682.937 277.387 676.827L309.925 605.509C312.183 600.727 314.706 598.47 317.23 598.47C319.753 598.47 322.276 600.727 324.401 605.509L357.073 676.695C359.862 682.937 357.205 687.054 350.432 687.054C347.245 687.054 344.456 685.194 343.127 682.538L342.331 680.812C340.471 676.695 336.221 674.038 331.839 674.038H302.62C298.105 674.038 293.855 676.695 291.996 680.812L291.332 682.405C290.004 685.194 287.082 687.054 284.027 687.054H283.894ZM305.675 651.328C303.417 655.976 305.41 659.164 310.589 659.164H323.737C328.917 659.164 330.909 655.976 328.784 651.328L320.815 634.063C319.753 631.672 318.558 630.61 317.23 630.61C316.034 630.61 314.706 631.672 313.644 634.063L305.675 651.328Z" fill="white"/>
<path d="M376.617 601.923C376.617 597.274 379.805 594.087 384.453 594.087H384.719C389.367 594.087 392.554 597.274 392.554 601.923V663.679C392.554 668.726 396.008 672.179 401.054 672.179H429.476C433.858 672.179 436.78 675.101 436.78 679.484C436.78 684.132 433.858 687.054 429.476 687.054H387.906C381.133 687.054 376.617 682.538 376.617 675.765V601.923ZM451.712 679.218V601.923C451.712 597.274 454.899 594.087 459.548 594.087C464.462 594.087 467.649 597.274 467.649 601.923V679.218C467.649 683.866 464.462 687.054 459.813 687.054C454.899 687.054 451.712 683.866 451.712 679.218ZM487.897 597.673C487.897 595.548 489.358 594.087 491.483 594.087C492.546 594.087 493.741 594.618 494.405 595.282L542.615 647.078C543.943 648.406 545.006 649.07 545.935 649.07C547.131 649.07 547.795 647.742 547.795 645.086V601.923C547.795 597.274 550.982 594.087 555.63 594.087C560.544 594.087 563.732 597.274 563.732 601.923V683.468C563.732 685.593 562.271 687.054 560.146 687.054C559.083 687.054 557.888 686.522 557.224 685.726L509.014 633.797C507.686 632.469 506.624 631.805 505.694 631.805C504.499 631.805 503.835 633.133 503.835 635.789V679.218C503.835 683.866 500.647 687.054 495.999 687.054C491.085 687.054 487.897 683.866 487.897 679.218V597.673ZM583.873 679.218V601.923C583.873 597.274 587.061 594.087 591.709 594.087C596.623 594.087 599.81 597.274 599.81 601.923V629.016C599.81 631.539 600.474 632.867 601.404 632.867C602.201 632.867 603.131 632.07 604.326 630.61L630.755 597.673C632.482 595.548 635.536 594.087 638.325 594.087C646.825 594.087 648.817 598.337 643.638 604.844L626.372 626.492C623.716 629.813 623.716 634.328 626.372 637.781L654.794 674.57C660.504 682.007 658.114 687.054 648.684 687.054C646.559 687.054 644.434 685.991 643.239 684.53L616.677 649.867C615.349 648.14 613.755 647.344 612.162 647.344C610.701 647.344 609.107 648.14 607.779 649.867L604.326 654.117C601.67 657.57 599.81 662.617 599.81 666.999V679.218C599.81 683.866 596.623 687.054 591.975 687.054H591.709C587.061 687.054 583.873 683.866 583.873 679.218Z" fill="#2AF89B"/>
<path d="M358.547 86.8444C342.816 51.9457 316.698 33.4873 307.692 27.2554C268.065 0.0130128 227.477 -0.10569 213.247 0.0130128C195.896 0.191068 153.206 0.725231 116.641 31.41C82.1178 60.4329 73.9521 98.8334 70.2897 116.105C56.4802 181.332 85.0598 234.63 94.7864 251.07C113.519 280.865 140.298 322.708 172.78 371.317C176.923 377.549 185.148 389.36 200.038 395.295C215.889 401.645 233.241 399.568 245.91 392.149C271.667 377.074 277.371 345.261 259.719 317.01C229.939 269.232 199.678 221.751 170.318 173.735C164.614 164.417 160.351 147.799 164.134 129.578C164.674 126.907 165.335 124.829 165.455 124.355C165.455 124.355 169.237 113.197 180.645 104.591C196.136 92.8983 236.123 89.4559 255.156 112.84C255.156 112.84 268.125 127.56 266.564 149.045C266.144 154.98 265.903 160.025 261.64 168.69C257.438 177.178 252.514 185.843 251.013 194.983C246.87 219.851 260.26 241.396 282.895 249.112C293.522 252.732 304.21 252.97 313.996 250.18C329.967 245.669 338.913 233.858 344.077 227.033C363.59 200.918 383.884 143.169 358.427 86.7851L358.547 86.8444Z" fill="#2AF89B"/>
<path d="M310.692 431.341C326.423 466.239 352.541 484.696 361.547 490.928C401.174 518.229 441.762 518.348 455.992 518.17C473.344 517.992 516.033 517.458 552.598 486.774C587.121 457.751 595.287 419.352 598.949 402.081C612.759 336.856 584.179 283.559 574.453 267.119C555.72 237.326 528.942 195.484 496.459 146.876C492.317 140.644 484.091 128.834 469.201 122.899C453.35 116.548 435.998 118.626 423.329 126.044C397.572 141.119 391.868 172.931 409.52 201.181C439.3 248.958 469.561 296.438 498.921 344.452C504.625 353.77 508.888 370.388 505.105 388.609C504.565 391.28 503.905 393.357 503.784 393.832C503.784 393.832 500.002 404.989 488.594 413.595C473.103 425.287 433.116 428.729 414.083 405.345C414.083 405.345 401.114 390.627 402.675 369.142C403.096 363.207 403.336 358.162 407.599 349.497C411.802 341.01 416.725 332.345 418.226 323.205C422.369 298.337 408.98 276.793 386.344 269.078C375.717 265.458 365.03 265.22 355.243 268.01C339.272 272.52 330.326 284.331 325.162 291.156C305.649 317.27 285.355 375.018 310.813 431.4L310.692 431.341Z" fill="#2AF89B"/>
</svg>
