<svg width="71" height="64" viewBox="0 0 71 64" fill="none" xmlns="http://www.w3.org/2000/svg">
<path d="M0.816406 12.38C0.816406 5.54271 6.35911 0 13.1964 0H57.7642C64.6014 0 70.1442 5.54271 70.1442 12.38V37.1399C70.1442 43.9771 64.6014 49.5198 57.7642 49.5198H38.8866L23.721 62.7897C20.5831 65.5355 15.6724 63.3071 15.6724 59.1376V49.5198H13.1964C6.35911 49.5198 0.816406 43.9771 0.816406 37.1399V12.38ZM13.1964 4.95198C9.09399 4.95198 5.76839 8.27759 5.76839 12.38V37.1399C5.76839 41.2421 9.09399 44.5678 13.1964 44.5678H20.6243V58.9192L37.0259 44.5678H57.7642C61.8664 44.5678 65.1922 41.2421 65.1922 37.1399V12.38C65.1922 8.27759 61.8664 4.95198 57.7642 4.95198H13.1964Z" fill="white"/>
<path d="M0.816406 12.38C0.816406 5.54271 6.35911 0 13.1964 0H57.7642C64.6014 0 70.1442 5.54271 70.1442 12.38V37.1399C70.1442 43.9771 64.6014 49.5198 57.7642 49.5198H38.8866L23.721 62.7897C20.5831 65.5355 15.6724 63.3071 15.6724 59.1376V49.5198H13.1964C6.35911 49.5198 0.816406 43.9771 0.816406 37.1399V12.38ZM13.1964 4.95198C9.09399 4.95198 5.76839 8.27759 5.76839 12.38V37.1399C5.76839 41.2421 9.09399 44.5678 13.1964 44.5678H20.6243V58.9192L37.0259 44.5678H57.7642C61.8664 44.5678 65.1922 41.2421 65.1922 37.1399V12.38C65.1922 8.27759 61.8664 4.95198 57.7642 4.95198H13.1964Z" stroke="white"/>
</svg>
