<svg width="70" height="64" viewBox="0 0 70 64" fill="none" xmlns="http://www.w3.org/2000/svg">
<path d="M0 12.38C0 5.54271 5.54271 0 12.38 0H56.9478C63.785 0 69.3278 5.54271 69.3278 12.38V37.1399C69.3278 43.9771 63.785 49.5198 56.9478 49.5198H38.0702L22.9046 62.7897C19.7667 65.5355 14.8559 63.3071 14.8559 59.1376V49.5198H12.38C5.54271 49.5198 0 43.9771 0 37.1399V12.38ZM12.38 4.95198C8.27759 4.95198 4.95198 8.27759 4.95198 12.38V37.1399C4.95198 41.2421 8.27759 44.5678 12.38 44.5678H19.8079V58.9192L36.2095 44.5678H56.9478C61.05 44.5678 64.3758 41.2421 64.3758 37.1399V12.38C64.3758 8.27759 61.05 4.95198 56.9478 4.95198H12.38Z" fill="white"/>
<path d="M0 12.38C0 5.54271 5.54271 0 12.38 0H56.9478C63.785 0 69.3278 5.54271 69.3278 12.38V37.1399C69.3278 43.9771 63.785 49.5198 56.9478 49.5198H38.0702L22.9046 62.7897C19.7667 65.5355 14.8559 63.3071 14.8559 59.1376V49.5198H12.38C5.54271 49.5198 0 43.9771 0 37.1399V12.38ZM12.38 4.95198C8.27759 4.95198 4.95198 8.27759 4.95198 12.38V37.1399C4.95198 41.2421 8.27759 44.5678 12.38 44.5678H19.8079V58.9192L36.2095 44.5678H56.9478C61.05 44.5678 64.3758 41.2421 64.3758 37.1399V12.38C64.3758 8.27759 61.05 4.95198 56.9478 4.95198H12.38Z" stroke="white"/>
</svg>
