<svg width="88" height="81" viewBox="0 0 88 81" fill="none" xmlns="http://www.w3.org/2000/svg">
<path fill-rule="evenodd" clip-rule="evenodd" d="M34.5141 14.6191C31.9621 22.0924 26.0924 27.9621 18.6191 30.5141C9.09644 33.766 9.09644 47.234 18.6191 50.4859C26.0924 53.0379 31.9621 58.9076 34.5141 66.3809C37.766 75.9036 51.234 75.9035 54.4859 66.3809C57.0379 58.9076 62.9076 53.0379 70.3809 50.4859C79.9036 47.234 79.9035 33.766 70.3809 30.5141C62.9076 27.9621 57.0379 22.0924 54.4859 14.6191C51.234 5.09644 37.766 5.09644 34.5141 14.6191ZM61.5618 12.2028C56.0057 -4.0676 32.9943 -4.0676 27.4382 12.2028C25.6343 17.4853 21.4853 21.6343 16.2028 23.4382C-0.0676012 28.9943 -0.0676012 52.0057 16.2028 57.5618C21.4853 59.3657 25.6343 63.5147 27.4382 68.7972C32.9943 85.0676 56.0057 85.0676 61.5618 68.7972C63.3657 63.5147 67.5147 59.3657 72.7972 57.5618C89.0676 52.0057 89.0676 28.9943 72.7972 23.4382C67.5147 21.6343 63.3657 17.4853 61.5618 12.2028Z" fill="white"/>
</svg>
