<svg width="88" height="81" viewBox="0 0 88 81" fill="none" xmlns="http://www.w3.org/2000/svg">
<path d="M76.7681 24.3678L52.4971 3.09023C50.2722 1.10019 47.3919 0 44.4068 0C41.4218 0 38.5414 1.10019 36.3165 3.09023L12.0455 24.3678C10.7607 25.5169 9.73535 26.9266 9.03785 28.5029C8.34035 30.0793 7.98668 31.7861 8.00038 33.5098V68.8645C8.00038 72.0831 9.27894 75.1698 11.5548 77.4456C13.8306 79.7214 16.9173 81 20.1359 81H68.6778C71.8963 81 74.983 79.7214 77.2589 77.4456C79.5347 75.1698 80.8133 72.0831 80.8133 68.8645V33.4694C80.8212 31.7525 80.4648 30.0534 79.7675 28.4845C79.0701 26.9155 78.0478 25.5124 76.7681 24.3678ZM52.4971 72.9097H36.3165V52.6839C36.3165 51.611 36.7427 50.5821 37.5013 49.8235C38.2599 49.0649 39.2888 48.6387 40.3617 48.6387H48.452C49.5248 48.6387 50.5537 49.0649 51.3123 49.8235C52.071 50.5821 52.4971 51.611 52.4971 52.6839V72.9097ZM72.7229 68.8645C72.7229 69.9374 72.2968 70.9663 71.5381 71.7249C70.7795 72.4835 69.7506 72.9097 68.6778 72.9097H60.5875V52.6839C60.5875 49.4654 59.3089 46.3786 57.0331 44.1028C54.7572 41.827 51.6705 40.5484 48.452 40.5484H40.3617C37.1431 40.5484 34.0564 41.827 31.7806 44.1028C29.5047 46.3786 28.2262 49.4654 28.2262 52.6839V72.9097H20.1359C19.063 72.9097 18.0341 72.4835 17.2755 71.7249C16.5169 70.9663 16.0907 69.9374 16.0907 68.8645V33.4694C16.0914 32.895 16.2145 32.3274 16.4516 31.8043C16.6887 31.2812 17.0346 30.8146 17.4661 30.4355L41.737 9.19842C42.4752 8.5499 43.4242 8.19225 44.4068 8.19225C45.3894 8.19225 46.3384 8.5499 47.0766 9.19842L71.3476 30.4355C71.7791 30.8146 72.1249 31.2812 72.362 31.8043C72.5992 32.3274 72.7222 32.895 72.7229 33.4694V68.8645Z" fill="#2AF89B"/>
</svg>
