<svg width="84" height="70" viewBox="0 0 84 70" fill="none" xmlns="http://www.w3.org/2000/svg">
<path d="M58.1702 3.00017C54.954 2.98765 51.7737 3.67942 48.8533 5.02689C46.1085 6.29338 43.6556 8.11023 41.6456 10.3626C37.5748 5.69973 31.5857 3.00035 25.0733 3.00035C19.2212 3.00702 13.6102 5.33471 9.47226 9.47274C5.33426 13.6108 3.00662 19.2212 3 25.0733C3 34.0181 9.48664 43.7591 21.9947 54.0276L21.9961 54.0287C27.7975 58.7575 33.9808 62.9976 40.4824 66.7054L40.4888 66.7089C40.8336 66.8989 41.2206 66.9989 41.6142 67C42.0078 67.0011 42.3953 66.9031 42.7411 66.715L42.7477 66.7114C49.2551 63.0436 55.4415 58.8336 61.2413 54.126L61.2426 54.125C73.7548 43.8964 80.2411 34.1235 80.2411 25.0738V25.0716C80.2153 19.226 77.8817 13.6271 73.7482 9.49345C69.6146 5.35984 64.0158 3.02611 58.1702 3.00017Z" stroke="white" stroke-width="5.92" stroke-linejoin="round"/>
</svg>
