<svg width="80" height="66" viewBox="0 0 80 66" fill="none" xmlns="http://www.w3.org/2000/svg">
<path d="M40.1928 60.3749C42.9191 58.7985 50.0758 54.4804 57.1405 48.6992C71.6997 36.7845 74.6433 28.0413 74.6434 22.9174C74.6271 19.12 73.3901 15.4286 71.1152 12.388C68.84 9.34702 65.6471 7.1183 62.0081 6.03106C58.369 4.94381 54.4768 5.05567 50.9062 6.35012C47.3362 7.64437 44.2769 10.0523 42.1801 13.2183C41.963 13.5493 41.6666 13.8208 41.3179 14.0081C40.9694 14.1953 40.5796 14.2925 40.184 14.2909M40.1928 60.3749L40.185 13.7909M40.1928 60.3749C37.467 58.7819 30.3052 54.4171 23.2353 48.6072L22.9178 48.9935L23.2353 48.6072C8.66898 36.6375 5.72668 27.9692 5.72663 22.9189C5.73197 18.2387 7.5935 13.7518 10.9029 10.4423C14.2122 7.13292 18.6991 5.2713 23.3793 5.26585C29.5286 5.2659 35.0506 8.22849 38.1679 13.1848M40.1928 60.3749L38.5912 12.9186M40.184 14.2909C40.1836 14.2909 40.1831 14.2909 40.1827 14.2909L40.185 13.7909M40.184 14.2909H40.185V13.7909M40.184 14.2909H40.1696C39.7696 14.2909 39.3761 14.1894 39.026 13.9959C38.676 13.8025 38.3808 13.5234 38.1679 13.1848M40.185 13.7909H40.1696C39.8542 13.7909 39.5439 13.7109 39.2679 13.5583C38.9918 13.4058 38.759 13.1856 38.5912 12.9186M38.1679 13.1848L38.5912 12.9186M38.1679 13.1848C38.1679 13.1847 38.1679 13.1846 38.1678 13.1846L38.5912 12.9186M56.9931 0.50017L56.9929 0.500169C53.7264 0.487458 50.4967 1.19004 47.5308 2.55857C44.743 3.84484 42.2518 5.69008 40.2104 7.9776C36.0759 3.24191 29.9933 0.500354 23.3791 0.500354L23.3786 0.500354C17.4351 0.507133 11.737 2.87119 7.53433 7.07388C3.33167 11.2766 0.967666 16.9747 0.960938 22.9182V22.9187C0.960938 32.0033 7.54893 41.896 20.2525 52.3249L20.2538 52.326C26.1459 57.1287 32.4258 61.4351 39.029 65.2008L39.0356 65.2044C39.3857 65.3973 39.7788 65.4989 40.1785 65.5C40.5783 65.5011 40.9719 65.4016 41.3231 65.2106L41.3231 65.2107L41.3298 65.2069C47.9388 61.4818 54.2218 57.206 60.1122 52.4249L60.1136 52.4238C72.8213 42.0354 79.4089 32.1098 79.4089 22.9187L79.4089 22.9165C79.3827 16.9795 77.0127 11.2931 72.8146 7.09491C68.6165 2.89671 62.9302 0.526516 56.9931 0.50017Z" fill="white" stroke="white"/>
</svg>
