<svg width="78" height="65" viewBox="0 0 78 65" fill="none" xmlns="http://www.w3.org/2000/svg">
<path d="M56.0817 0.500166C52.8883 0.487738 49.7308 1.17462 46.8311 2.51257C43.9313 3.85052 41.3597 5.80709 39.2967 8.24487C35.2586 3.35324 29.1469 0.500354 22.4699 0.500354C16.6589 0.506982 11.0877 2.81837 6.9787 6.92743C2.86967 11.0365 0.558336 16.6077 0.551758 22.4187C0.551758 31.2657 6.98092 41.0291 19.6606 51.4385C25.5313 56.2237 31.7883 60.5144 38.3676 64.2665C38.6443 64.4188 38.9548 64.4991 39.2707 64.5C39.5866 64.5009 39.8976 64.4222 40.1751 64.2714C46.7596 60.56 53.0194 56.3001 58.8879 51.5367C71.5696 41.1696 77.9997 31.373 77.9997 22.4187C77.9741 16.6136 75.6567 11.0534 71.5518 6.94846C67.447 2.84349 61.8869 0.525926 56.0817 0.500166Z" fill="white"/>
</svg>
