<svg width="78" height="64" viewBox="0 0 78 64" fill="none" xmlns="http://www.w3.org/2000/svg">
<path d="M38.7212 11.643L36.8171 9.33643C33.2717 5.04173 27.8781 2.50075 21.9196 2.50035C16.7711 2.50661 11.8353 4.55461 8.19471 8.1952C4.55415 11.8358 2.50622 16.7716 2.5 21.9201C2.50066 29.5779 8.13469 38.6941 20.6919 49.0036C26.3569 53.6208 32.388 57.7689 38.7258 61.4069C45.0657 57.8094 51.0966 53.6927 56.7568 49.0988C69.3032 38.8417 74.9452 29.693 74.948 21.9245C74.9239 16.7804 72.8698 11.8538 69.2323 8.21622C65.5936 4.57744 60.6651 2.52307 55.5192 2.50014L38.7212 11.643ZM38.7212 11.643L40.6534 9.35983M38.7212 11.643L40.6534 9.35983M40.6534 9.35983C42.4806 7.20061 44.7583 5.46763 47.3267 4.28259C49.8947 3.09772 52.6908 2.48934 55.5189 2.50014L40.6534 9.35983Z" stroke="white" stroke-width="5"/>
</svg>
