<svg width="80" height="67" viewBox="0 0 80 67" fill="none" xmlns="http://www.w3.org/2000/svg">
<path d="M57.0322 0.948413L57.0319 0.948412C53.7654 0.9357 50.5358 1.63828 47.5698 3.00681C44.7821 4.29308 42.2908 6.13833 40.2494 8.42585C36.115 3.69015 30.0325 0.948596 23.4182 0.948596L23.4176 0.948597C17.4741 0.955375 11.7761 3.31943 7.57339 7.52212C3.37069 11.7248 1.00673 17.4229 1 23.3664V23.367C1 32.4515 7.58786 42.3442 20.2915 52.7732L20.2929 52.7743C26.1851 57.577 32.4648 61.8833 39.0681 65.649L39.0681 65.6491L39.0746 65.6527C39.4248 65.8455 39.8178 65.9472 40.2176 65.9482C40.6173 65.9493 41.0109 65.8498 41.3622 65.6589L41.3688 65.6552C47.9779 61.9301 54.2608 57.6543 60.1513 52.8732L60.1526 52.8721C72.8605 42.4837 79.448 32.558 79.448 23.367L79.448 23.3648C79.4218 17.4278 77.0518 11.7414 72.8536 7.54315C68.6555 3.34496 62.9693 0.974758 57.0322 0.948413Z" fill="white" stroke="white"/>
</svg>
