<svg width="88" height="81" viewBox="0 0 88 81" fill="none" xmlns="http://www.w3.org/2000/svg">
<path d="M14.0119 27.2237C14.3795 18.602 19.2181 9.30439 29.6067 3.78985C40.3393 -1.91444 50.9771 -1.00128 61.4843 5.33155C72.9522 12.2455 80.0915 31.1728 69.8451 47.1353C63.8443 56.4804 57.9384 65.8966 52.2816 75.4551C48.6408 81.6101 41.9641 82.0607 37.8252 79.6177C32.7376 76.6055 31.611 70.2489 35.0976 64.604C40.9797 55.0573 46.9568 45.5699 52.756 35.9758C56.5153 29.7616 53.8826 23.0018 47.0635 20.7723C43.1974 19.5033 39.4262 20.5825 36.6155 24.081C34.0421 27.283 32.6901 30.8289 34.7062 34.9559C35.5364 36.6518 36.5088 38.3832 36.8053 40.2095C37.6236 45.1785 34.979 49.4834 30.508 51.0251C25.8474 52.638 21.0681 50.8947 18.4235 46.6254C15.4587 41.8342 14.0119 36.4739 14 27.2237H14.0119Z" fill="white"/>
</svg>
