<svg width="54" height="68" viewBox="0 0 54 68" fill="none" xmlns="http://www.w3.org/2000/svg">
<path d="M41.8576 0.5H41.8571L12.1429 0.5L12.1424 0.5C5.77237 0.506258 0.507212 5.10467 0.5 10.8994V10.9L0.499999 65.3499L0.500001 65.3507C0.500611 65.7373 0.615175 66.1133 0.826342 66.4404L0.826373 66.4405C1.48955 67.4676 2.91486 67.7855 4.01268 67.2263L4.01348 67.2259L27 55.4637L49.9865 67.2259L49.9891 67.2272C50.3436 67.4059 50.7404 67.4989 51.1416 67.4999H51.1436C52.3871 67.4979 53.4975 66.5906 53.5 65.3509V65.3499V10.9V10.8994C53.4928 5.10467 48.2276 0.506258 41.8576 0.5ZM48.7857 61.6771L28.1563 51.1215L28.1537 51.1202C27.7993 50.9414 27.4025 50.8485 27.0012 50.8475L26.9988 50.8475C26.5975 50.8485 26.2007 50.9414 25.8463 51.1202L25.8437 51.1215L5.21429 61.6771V10.9C5.21942 7.58644 8.26172 4.80438 12.1434 4.79999H41.8566C45.7385 4.80438 48.781 7.58688 48.7857 10.9007V61.6771Z" fill="white" stroke="white"/>
</svg>
