<svg width="88" height="81" viewBox="0 0 88 81" fill="none" xmlns="http://www.w3.org/2000/svg">
<path d="M83.6693 73.2814L68.3743 58.0313C73.3091 51.7444 75.9868 43.9808 75.9768 35.9884C75.9768 28.8706 73.8661 21.9126 69.9117 15.9943C65.9572 10.0761 60.3366 5.46335 53.7606 2.73947C47.1846 0.0155931 39.9485 -0.697097 32.9674 0.691523C25.9864 2.08014 19.5738 5.50771 14.5408 10.5408C9.50771 15.5738 6.08014 21.9864 4.69152 28.9674C3.3029 35.9485 4.01559 43.1846 6.73947 49.7606C9.46335 56.3366 14.0761 61.9572 19.9943 65.9117C25.9126 69.8661 32.8706 71.9768 39.9884 71.9768C47.9808 71.9868 55.7444 69.3091 62.0313 64.3743L77.2814 79.6693C77.6996 80.091 78.1971 80.4257 78.7453 80.654C79.2935 80.8824 79.8815 81 80.4754 81C81.0692 81 81.6572 80.8824 82.2054 80.654C82.7536 80.4257 83.2511 80.091 83.6693 79.6693C84.091 79.2511 84.4257 78.7536 84.654 78.2054C84.8824 77.6572 85 77.0692 85 76.4754C85 75.8815 84.8824 75.2935 84.654 74.7453C84.4257 74.1971 84.091 73.6996 83.6693 73.2814ZM12.9971 35.9884C12.9971 30.65 14.5801 25.4316 17.546 20.9929C20.5118 16.5542 24.7273 13.0946 29.6593 11.0517C34.5913 9.0088 40.0184 8.47428 45.2542 9.51575C50.49 10.5572 55.2993 13.1279 59.0741 16.9027C62.8489 20.6775 65.4196 25.4869 66.4611 30.7227C67.5026 35.9585 66.968 41.3855 64.9251 46.3175C62.8822 51.2496 59.4227 55.465 54.984 58.4309C50.5453 61.3967 45.3268 62.9797 39.9884 62.9797C32.8299 62.9797 25.9645 60.136 20.9027 55.0741C15.8408 50.0123 12.9971 43.147 12.9971 35.9884Z" fill="white"/>
</svg>
