<svg width="70" height="64" viewBox="0 0 70 64" fill="none" xmlns="http://www.w3.org/2000/svg">
<path d="M68.1513 29.5573L40.5108 1.91687C40.0276 1.43382 39.4121 1.10488 38.742 0.971623C38.0718 0.838369 37.3773 0.90679 36.746 1.16823C36.1148 1.42968 35.5752 1.87241 35.1956 2.44045C34.8159 3.0085 34.6132 3.67635 34.6131 4.35959V16.6078C25.1748 17.4812 16.4022 21.8451 10.012 28.8457C3.62174 35.8462 0.073804 44.9794 0.0625 54.4579V59.6405C0.0630454 60.3577 0.286767 61.0569 0.702632 61.6412C1.1185 62.2256 1.70589 62.666 2.38335 62.9014C3.0608 63.1369 3.79473 63.1556 4.48334 62.9552C5.17195 62.7547 5.78111 62.3449 6.22632 61.7826C9.61123 57.7573 13.7644 54.447 18.4432 52.045C23.122 49.643 28.2326 48.1975 33.4763 47.7931C33.6491 47.7724 34.081 47.7378 34.6131 47.7033V59.6405C34.6132 60.3237 34.8159 60.9916 35.1956 61.5596C35.5752 62.1277 36.1148 62.5704 36.746 62.8318C37.3773 63.0933 38.0718 63.1617 38.742 63.0284C39.4121 62.8952 40.0276 62.5662 40.5108 62.0832L68.1513 34.4428C68.799 33.7948 69.1629 32.9162 69.1629 32C69.1629 31.0839 68.799 30.2052 68.1513 29.5573ZM41.5232 51.3V44.0927C41.5232 43.1764 41.1591 42.2976 40.5112 41.6496C39.8633 41.0017 38.9844 40.6377 38.0681 40.6377C37.1871 40.6377 33.5904 40.8104 32.6713 40.9313C23.3595 41.7893 14.4957 45.3272 7.15227 51.1169C7.98578 43.4965 11.6008 36.4513 17.3051 31.3303C23.0095 26.2093 30.4023 23.3722 38.0681 23.3624C38.9844 23.3624 39.8633 22.9984 40.5112 22.3504C41.1591 21.7025 41.5232 20.8237 41.5232 19.9073V12.7001L60.8231 32L41.5232 51.3Z" fill="white"/>
</svg>
