<svg width="69" height="69" viewBox="0 0 69 69" fill="none" xmlns="http://www.w3.org/2000/svg">
<path fill-rule="evenodd" clip-rule="evenodd" d="M9.13864 23.2605C12.6185 30.3495 12.6185 38.6505 9.13864 45.7395C4.7045 54.7724 14.2278 64.2958 23.2608 59.8616C30.3498 56.3818 38.6508 56.3818 45.7397 59.8616C54.7727 64.2958 64.296 54.7724 59.8619 45.7395C56.382 38.6505 56.382 30.3495 59.8619 23.2605C64.296 14.2276 54.7727 4.70425 45.7397 9.13839C38.6508 12.6182 30.3498 12.6182 23.2608 9.13839C14.2278 4.70425 4.7045 14.2276 9.13864 23.2605ZM26.5556 2.42635C11.1219 -5.14979 -5.14952 11.1217 2.42662 26.5554C4.88635 31.5662 4.88635 37.4338 2.42661 42.4446C-5.14952 57.8783 11.1219 74.1498 26.5556 66.5736C31.5665 64.1139 37.4341 64.1139 42.4449 66.5736C57.8786 74.1498 74.15 57.8783 66.5739 42.4446C64.1142 37.4338 64.1142 31.5662 66.5739 26.5554C74.15 11.1217 57.8786 -5.14978 42.4449 2.42636C37.4341 4.88609 31.5665 4.88609 26.5556 2.42635Z" fill="white"/>
<path d="M44.3162 32.3733C45.9526 33.3181 45.9526 35.68 44.3162 36.6247L31.4299 44.0647C29.7935 45.0094 27.748 43.8285 27.748 41.939L27.748 27.0591C27.748 25.1696 29.7935 23.9886 31.4299 24.9334L44.3162 32.3733Z" fill="white"/>
</svg>
